# xmcd
#
# Track frame offsets:
#	150
#	16313
#	32394
#	52083
#	65642
#	83599
#	97304
#	118562
#	139820
#	155297
#	171127
#	190639
#
# Disc length: 2750 seconds
#
# Revision: 3
# Processed by: cddbd v1.5.2PL0 Copyright (c) Steve Scherf et al.
# Submitted via: audiograbber 1.83.01
#
DISCID=980abc0c
DTITLE=BossaCucaNova - Uma Batida Diferente
DYEAR=2004
DGENRE=Bossa Nova
TTITLE0=Bom dia Rio (Posto 6) (com Roberto Menescal and Cris Delanno)
TTITLE1=O samba da minha terra (com Zuco 103)
TTITLE2=Essa moça tá diferente (com Simoninha)
TTITLE3=Previsão (com Adriana Calcanhotto)
TTITLE4=Eu quero um samba (com Cris Delanno)
TTITLE5=Just a Samba (com Celso Fonseca)
TTITLE6=Queria (Com Marcos Valle)
TTITLE7=Águas de março (Com Cris Delanno)
TTITLE8=Bonita (com Roberto Menescal)
TTITLE9=Feitinha pro poeta (com Roberto Menescal)
TTITLE10=Onde anda meu amor (com Orlan Divo and Cris Delanno)
TTITLE11=Vai levando (com Trio Mocotó)
EXTD=
EXTT0=
EXTT1=
EXTT2=
EXTT3=
EXTT4=
EXTT5=
EXTT6=
EXTT7=
EXTT8=
EXTT9=
EXTT10=
EXTT11=
PLAYORDER=
